<svg data-v-423bf9ae="" xmlns="http://www.w3.org/2000/svg" viewBox="0 0 242.88288019960146 60" class="font"><!----><!----><defs data-v-423bf9ae=""><linearGradient data-v-423bf9ae="" gradientTransform="rotate(25)" id="6d05332f-6c4f-4766-9889-9fe5204aef4c" x1="0%" y1="0%" x2="100%" y2="0%"><stop data-v-423bf9ae="" offset="0%" style="stop-color: rgb(240, 80, 0); stop-opacity: 1;"></stop><stop data-v-423bf9ae="" offset="100%" style="stop-color: rgb(247, 170, 0); stop-opacity: 1;"></stop></linearGradient></defs><g data-v-423bf9ae="" id="95c56fae-95ff-4344-8247-575257c95080" fill="url(#6d05332f-6c4f-4766-9889-9fe5204aef4c)" transform="matrix(6.006006143610182,0,0,6.006006143610182,-2.882884011525178,-23.903905042961156)"><path d="M0.62 3.98L0.62 5.66L5.32 5.66L0.48 12.15L0.48 13.78L7.67 13.78L7.67 12.10L2.80 12.10L7.64 5.60L7.64 3.98ZM8.36 10.30C8.36 12.49 9.95 13.97 12.00 13.97C14.04 13.97 15.64 12.49 15.64 10.30C15.64 8.12 14.04 6.64 12.00 6.64C9.95 6.64 8.36 8.12 8.36 10.30ZM10.12 10.30C10.12 9.07 10.88 8.26 12.00 8.26C13.12 8.26 13.87 9.07 13.87 10.30C13.87 11.54 13.12 12.35 12.00 12.35C10.88 12.35 10.12 11.54 10.12 10.30ZM16.90 6.83L16.90 13.78L18.66 13.78L18.66 10.19C18.66 8.96 19.26 8.26 20.40 8.26C21.41 8.26 21.97 8.83 21.97 9.80L21.97 13.78L23.73 13.78L23.73 9.63C23.73 7.83 22.57 6.72 21.03 6.72C19.75 6.72 19.11 7.31 18.83 7.95L18.63 7.95L18.63 6.83ZM24.91 10.25C24.91 12.40 26.40 13.97 28.48 13.97C30.34 13.97 31.15 12.99 31.63 12.26L30.11 11.40C29.88 11.89 29.43 12.43 28.45 12.43C27.44 12.43 26.78 11.72 26.74 10.82L31.88 10.82L31.88 10.14C31.88 8.05 30.46 6.64 28.45 6.64C26.40 6.64 24.91 8.15 24.91 10.25ZM26.75 9.59C26.87 8.76 27.44 8.18 28.43 8.18C29.34 8.18 29.96 8.74 30.06 9.59ZM32.55 3.98L35.28 8.74L35.28 8.93L32.52 13.78L34.57 13.78L36.62 10.19L36.82 10.19L38.88 13.78L40.92 13.78L38.16 8.93L38.16 8.74L40.89 3.98L38.85 3.98L36.82 7.48L36.62 7.48L34.59 3.98Z"></path></g><!----><!----></svg>